# xmcd
#
# Track frame offsets: 
#        150
#        23674
#        50665
#        87413
#        111612
#        135523
#        150248
#        172493
#        191251
#        214676
#        246062
#        262131
#        278695
#
# Disc length: 4247 seconds
#
# Revision: 1
# Processed by: cddbd v1.5.2PL0 Copyright (c) Steve Scherf et al.
# Submitted via: ExactAudioCopy v0.95a4
#
DISCID=b910950d
DTITLE=Hans Theesink - 70 Birthday Bash [CD1]
DYEAR=2019
DGENRE=Blues
TTITLE0=Stormwarning
TTITLE1=Honest I Do
TTITLE2=Vicksburg Is My Home
TTITLE3=Built For Comfort
TTITLE4=Walking The Dog
TTITLE5=Change Is Gonna Come
TTITLE6=Cocaine Blues
TTITLE7=Jesus On The Mainline
TTITLE8=Set Me Free
TTITLE9=Zambezi
TTITLE10=Uncloudy Day
TTITLE11=I Saw The Light
TTITLE12=Will The Circle Be Unbroken
EXTD=
EXTT0=
EXTT1=
EXTT2=
EXTT3=
EXTT4=
EXTT5=
EXTT6=
EXTT7=
EXTT8=
EXTT9=
EXTT10=
EXTT11=
EXTT12=
PLAYORDER=
